# Blender v2.79 (sub 0) OBJ File: 'axe-iron.blend'
# www.blender.org
mtllib axe-iron.mtl
o Cube_Cube.001
v 0.014457 0.030042 0.008776
v -0.013814 0.871985 -0.044408
v 0.015047 0.030042 -0.033539
v -0.014029 0.895563 -0.045881
v 0.012264 0.701437 -0.017111
v 0.009390 0.223511 -0.011392
v 0.010689 0.063432 -0.018232
v 0.012917 0.701437 0.021627
v 0.010491 0.223511 0.019889
v 0.011539 0.063432 0.017132
v 0.009742 0.000891 0.002431
v 0.009928 0.000891 -0.024331
v 0.014410 0.964235 0.044897
v -0.014243 0.934632 -0.047355
v -0.013536 0.870200 0.044596
v 0.014457 0.969457 -0.048828
v -0.015364 0.899804 0.046613
v 0.019173 0.030042 -0.011578
v -0.015688 0.934632 0.046725
v 0.018115 0.063432 -0.002142
v 0.014213 0.223511 0.001092
v 0.015660 0.701437 0.000646
v 0.014000 0.002671 -0.010950
v 0.021999 0.969460 -0.002481
v -0.014457 0.030042 0.008776
v 0.021938 0.864976 -0.001318
v -0.015047 0.030042 -0.033539
v 0.023625 0.897876 -0.001706
v -0.012264 0.701437 -0.017111
v -0.009390 0.223511 -0.011392
v -0.010689 0.063432 -0.018232
v -0.012917 0.701437 0.021627
v -0.010491 0.223511 0.019889
v -0.011539 0.063432 0.017132
v -0.009742 0.000891 0.002431
v -0.009928 0.000891 -0.024331
v 0.023647 0.934632 -0.002094
v 0.013814 0.871985 -0.044408
v -0.014410 0.964235 0.044897
v 0.014029 0.895563 -0.045881
v 0.014243 0.934632 -0.047355
v 0.013536 0.870200 0.044596
v 0.015364 0.899804 0.046613
v -0.014457 0.969457 -0.048828
v 0.015688 0.934632 0.046725
v 0.000000 0.869080 0.047214
v -0.019173 0.030042 -0.011578
v 0.000000 0.899804 0.050980
v -0.018115 0.063432 -0.002142
v -0.014213 0.223511 0.001092
v -0.015660 0.701437 0.000646
v -0.014000 0.002671 -0.010950
v 0.000000 0.934632 0.050896
v -0.021999 0.969460 -0.002481
v -0.016331 0.856071 -0.000931
v -0.014716 0.856071 0.022865
v -0.013600 0.856071 -0.023724
v 0.000000 0.030042 -0.046562
v 0.000000 0.856071 -0.039260
v 0.000000 0.030042 0.027714
v 0.000000 0.856071 0.032350
v 0.000000 0.063432 0.030459
v 0.000000 0.223511 0.030208
v 0.000000 0.701437 0.031509
v 0.000000 0.063432 -0.031898
v 0.000000 0.223511 -0.023817
v 0.000000 0.701437 -0.031146
v 0.000000 0.002671 -0.030356
v 0.000000 0.002671 0.008457
v 0.000000 0.874784 -0.165690
v 0.016331 0.856071 -0.000931
v 0.014716 0.856071 0.022865
v 0.000000 0.965356 0.046982
v 0.013600 0.856071 -0.023724
v 0.000000 0.000001 -0.010950
v -0.023647 0.934632 -0.002094
v -0.023625 0.897876 -0.001706
v -0.021938 0.864976 -0.001318
v 0.000000 0.941078 -0.167163
v 0.000000 0.976565 -0.158828
v 0.000000 0.823260 -0.147564
v -0.003726 0.974124 -0.148828
v 0.003671 0.940686 -0.157163
v 0.003615 0.876746 -0.155690
v 0.003560 0.827037 -0.144408
v 0.003726 0.974124 -0.148828
v -0.003671 0.940686 -0.157163
v -0.003615 0.876746 -0.155690
v -0.003560 0.827037 -0.144408
v 0.000000 0.819218 -0.154408
v 0.007121 0.936226 -0.077875
v -0.006907 0.868501 -0.068389
v 0.007229 0.968224 -0.071400
v 0.000000 0.861582 -0.066772
v 0.007014 0.892137 -0.077710
v 0.006907 0.868501 -0.068389
v -0.007014 0.892137 -0.077710
v -0.007229 0.968224 -0.071400
v -0.007121 0.936226 -0.077875
v 0.000000 0.969457 -0.048828
v 0.005477 0.969611 -0.110114
v 0.000000 0.851758 -0.107168
v -0.005315 0.885291 -0.116700
v -0.005396 0.938101 -0.117519
v 0.005396 0.938101 -0.117519
v -0.005234 0.859285 -0.111499
v 0.005315 0.885291 -0.116700
v 0.005234 0.859285 -0.111499
v -0.005477 0.969611 -0.110114
vt 0.217864 0.965379
vt 0.217864 0.965379
vt 0.217864 0.965379
vt 0.217864 0.965379
vt 0.156750 0.844463
vt 0.156750 0.844463
vt 0.156750 0.844463
vt 0.156750 0.844463
vt 0.217864 0.965379
vt 0.217864 0.965379
vt 0.217864 0.965379
vt 0.217864 0.965379
vt 0.156750 0.844463
vt 0.156750 0.844463
vt 0.156750 0.844463
vt 0.156750 0.844463
vt 0.156750 0.844463
vt 0.156750 0.844463
vt 0.156750 0.844463
vt 0.156750 0.844463
vt 0.156750 0.844463
vt 0.156750 0.844463
vt 0.156750 0.844463
vt 0.156750 0.844463
vt 0.156750 0.844463
vt 0.156750 0.844463
vt 0.156750 0.844463
vt 0.156750 0.844463
vt 0.156750 0.844463
vt 0.156750 0.844463
vt 0.344980 0.971580
vt 0.344980 0.971580
vt 0.344980 0.971580
vt 0.344980 0.971580
vt 0.217864 0.965379
vt 0.217864 0.965379
vt 0.217864 0.965379
vt 0.217864 0.965379
vt 0.217864 0.965379
vt 0.217864 0.965379
vt 0.217864 0.965379
vt 0.217864 0.965379
vt 0.217864 0.965379
vt 0.217864 0.965379
vt 0.217864 0.965379
vt 0.217864 0.965379
vt 0.217864 0.965379
vt 0.217864 0.965379
vt 0.217864 0.965379
vt 0.217864 0.965379
vt 0.217864 0.965379
vt 0.217864 0.965379
vt 0.217864 0.965379
vt 0.217864 0.965379
vt 0.217864 0.965379
vt 0.217864 0.965379
vt 0.217864 0.965379
vt 0.217864 0.965379
vt 0.217864 0.965379
vt 0.156750 0.844463
vt 0.156750 0.844463
vt 0.156750 0.844463
vt 0.156750 0.844463
vt 0.344980 0.971580
vt 0.344980 0.971580
vt 0.344980 0.971580
vt 0.344980 0.971580
vt 0.217864 0.965379
vt 0.217864 0.965379
vt 0.217864 0.965379
vt 0.217864 0.965379
vt 0.217864 0.965379
vt 0.217864 0.965379
vt 0.217864 0.965379
vt 0.156750 0.844463
vt 0.156750 0.844463
vt 0.156750 0.844463
vt 0.156750 0.844463
vt 0.156750 0.844463
vt 0.156750 0.844463
vt 0.156750 0.844463
vt 0.156750 0.844463
vt 0.156750 0.844463
vt 0.156750 0.844463
vt 0.156750 0.844463
vt 0.156750 0.844463
vt 0.156750 0.844463
vt 0.156750 0.844463
vt 0.156750 0.844463
vt 0.156750 0.844463
vt 0.156750 0.844463
vt 0.217864 0.965379
vt 0.217864 0.965379
vt 0.217864 0.965379
vt 0.217864 0.965379
vt 0.217864 0.965379
vt 0.217864 0.965379
vt 0.217864 0.965379
vt 0.217864 0.965379
vt 0.156750 0.844463
vt 0.156750 0.844463
vt 0.156750 0.844463
vt 0.156750 0.844463
vt 0.217864 0.965379
vt 0.156750 0.844463
vt 0.156750 0.844463
vt 0.217864 0.965379
vt 0.217864 0.965379
vt 0.217864 0.965379
vt 0.153649 0.844463
vt 0.153649 0.844463
vt 0.153649 0.844463
vt 0.217864 0.965379
vt 0.217864 0.965379
vt 0.344980 0.971580
vt 0.344980 0.971580
vt 0.344980 0.971580
vt 0.344980 0.971580
vt 0.344980 0.971580
vt 0.217864 0.965379
vt 0.217864 0.965379
vt 0.217864 0.965379
vt 0.217864 0.965379
vt 0.217864 0.965379
vt 0.217864 0.965379
vt 0.217864 0.965379
vt 0.217864 0.965379
vt 0.217864 0.965379
vt 0.217864 0.965379
vt 0.153649 0.844463
vn 0.9863 -0.0041 0.1648
vn 0.5422 -0.3849 -0.7469
vn -0.9990 0.0085 -0.0436
vn 0.9616 -0.0157 0.2740
vn 0.9653 0.0100 0.2611
vn 0.9870 -0.0042 0.1604
vn 0.6776 0.3375 -0.6534
vn 0.7921 0.0316 -0.6096
vn 0.7738 -0.0110 -0.6333
vn 0.0458 -0.9984 0.0331
vn 0.9511 -0.1909 0.2429
vn 0.9385 0.0804 -0.3357
vn 0.9855 0.0503 0.1620
vn 0.2780 -0.7673 0.5779
vn 0.2651 -0.0016 0.9642
vn 0.0000 0.9933 0.1158
vn 0.7364 -0.5291 0.4216
vn 0.9321 -0.3259 0.1584
vn 0.9991 -0.0107 -0.0408
vn 0.9080 -0.3738 -0.1894
vn 0.2374 -0.0998 0.9663
vn 0.9788 -0.0396 -0.2009
vn 0.5687 -0.6547 -0.4979
vn 0.9832 0.0154 -0.1819
vn 0.9546 -0.2105 -0.2108
vn 0.0454 -0.9984 -0.0327
vn 0.9650 -0.0061 -0.2623
vn 0.9188 0.0273 -0.3939
vn 0.9409 0.1822 -0.2857
vn 0.9782 -0.0081 -0.2076
vn 0.9822 -0.0599 0.1782
vn 0.2060 0.0970 0.9737
vn 0.6583 -0.3555 0.6635
vn 0.6533 -0.0041 0.7571
vn 0.7317 -0.0029 0.6817
vn 0.7768 -0.0701 0.6258
vn 0.9491 -0.0665 -0.3080
vn -0.9080 -0.3738 -0.1894
vn -0.9822 -0.0599 0.1782
vn -0.5422 -0.3849 -0.7469
vn 0.9953 -0.0078 0.0969
vn -0.9616 -0.0157 0.2740
vn -0.9653 0.0100 0.2611
vn -0.9870 -0.0042 0.1604
vn -0.6776 0.3375 -0.6534
vn -0.7921 0.0316 -0.6096
vn -0.7738 -0.0110 -0.6333
vn -0.0458 -0.9984 0.0331
vn -0.9511 -0.1909 0.2429
vn -0.9991 -0.0107 -0.0408
vn -0.9855 0.0503 0.1620
vn -0.5739 -0.0088 0.8189
vn -0.9953 -0.0078 0.0969
vn 0.5739 -0.0088 0.8189
vn 0.9887 -0.0104 -0.1494
vn -0.2374 -0.0998 0.9663
vn -0.9321 -0.3259 0.1584
vn -0.9863 -0.0041 0.1648
vn -0.7523 -0.0346 -0.6580
vn -0.9887 -0.0104 -0.1494
vn 0.7523 -0.0346 -0.6580
vn -0.9788 -0.0396 -0.2009
vn -0.9832 0.0154 -0.1819
vn -0.9546 -0.2105 -0.2108
vn -0.0454 -0.9984 -0.0327
vn -0.9650 -0.0061 -0.2623
vn -0.9188 0.0273 -0.3939
vn -0.9409 0.1822 -0.2857
vn -0.2780 -0.7673 0.5779
vn -0.2651 -0.0016 0.9642
vn -0.2060 0.0970 0.9737
vn -0.6583 -0.3555 0.6635
vn -0.6533 -0.0041 0.7571
vn -0.7317 -0.0029 0.6817
vn -0.7768 -0.0701 0.6258
vn -0.9782 -0.0081 -0.2076
vn -0.0948 0.9877 0.1241
vn 0.0948 0.9877 0.1241
vn 0.0000 0.9966 0.0827
vn -0.5687 -0.6547 -0.4979
vn 0.9990 0.0085 -0.0436
vn -0.9491 -0.0665 -0.3080
vn -0.9991 -0.0020 -0.0434
vn -0.7364 -0.5291 0.4216
vn 0.9398 -0.0081 -0.3417
vn 0.9991 -0.0020 -0.0434
vn 0.0000 0.9715 0.2371
vn -0.9398 -0.0081 -0.3417
vn -0.9385 0.0804 -0.3357
vn 0.4199 -0.7814 0.4616
vn -0.4199 -0.7814 0.4616
vn 0.9753 -0.0081 -0.2209
vn -0.7165 -0.6867 -0.1231
vn -0.9753 -0.0081 -0.2209
vn 0.9653 0.0149 -0.2608
vn -0.9702 -0.0602 -0.2346
vn 0.9702 -0.0602 -0.2346
vn 0.7165 -0.6867 -0.1231
vn 0.0000 0.9985 -0.0546
vn -0.9653 0.0149 -0.2608
vn 0.0000 1.0000 -0.0000
vn 0.0000 1.0000 -0.0001
vn 0.9991 -0.0024 -0.0434
vn -0.7841 -0.6083 0.1230
vn -0.9991 -0.0024 -0.0434
vn 0.9990 0.0067 -0.0440
vn -0.9992 -0.0149 -0.0381
vn 0.9992 -0.0149 -0.0381
vn 0.7841 -0.6083 0.1230
vn 0.0000 0.9994 0.0358
vn -0.9990 0.0067 -0.0440
usemtl None
s off
f 28/1/1 37/2/1 45/3/1 43/4/1
f 58/5/2 3/6/2 12/7/2 68/8/2
f 104/9/3 109/10/3 82/11/3 87/12/3
f 18/13/4 20/14/4 10/15/4 1/16/4
f 20/14/5 21/17/5 9/18/5 10/15/5
f 21/17/6 22/19/6 8/20/6 9/18/6
f 58/5/7 65/21/7 7/22/7 3/6/7
f 65/21/8 66/23/8 6/24/8 7/22/8
f 66/23/9 67/25/9 5/26/9 6/24/9
f 75/27/10 23/28/10 11/29/10 69/30/10
f 18/13/11 1/16/11 11/29/11 23/28/11
f 86/31/12 83/32/12 79/33/12 80/34/12
f 37/2/13 24/35/13 13/36/13 45/3/13
f 72/37/14 42/38/14 46/39/14 61/40/14
f 43/4/15 45/3/15 53/41/15 48/42/15
f 109/10/16 101/43/16 86/44/16 82/11/16
f 108/45/17 102/46/17 81/47/17 85/48/17
f 71/49/18 26/50/18 42/38/18 72/37/18
f 107/51/19 108/45/19 85/48/19 84/52/19
f 74/53/20 38/54/20 26/50/20 71/49/20
f 42/38/21 43/4/21 48/42/21 46/39/21
f 38/54/22 40/55/22 28/1/22 26/50/22
f 74/53/23 59/56/23 38/54/23
f 41/57/24 16/58/24 24/35/24 37/2/24
f 3/6/25 18/13/25 23/28/25 12/7/25
f 68/8/26 12/7/26 23/28/26 75/27/26
f 6/24/27 5/26/27 22/19/27 21/17/27
f 7/22/28 6/24/28 21/17/28 20/14/28
f 3/6/29 7/22/29 20/14/29 18/13/29
f 40/55/30 41/57/30 37/2/30 28/1/30
f 26/50/31 28/1/31 43/4/31 42/38/31
f 45/3/32 13/36/32 73/59/32 53/41/32
f 1/16/33 60/60/33 69/30/33 11/29/33
f 9/18/34 8/20/34 64/61/34 63/62/34
f 10/15/35 9/18/35 63/62/35 62/63/35
f 1/16/36 10/15/36 62/63/36 60/60/36
f 84/64/37 85/65/37 90/66/37 70/67/37
f 57/68/38 55/69/38 78/70/38 2/71/38
f 78/70/39 15/72/39 17/73/39 77/74/39
f 58/5/40 68/8/40 36/75/40 27/76/40
f 22/19/41 71/77/41 72/78/41 8/20/41
f 47/79/42 25/80/42 34/81/42 49/82/42
f 49/82/43 34/81/43 33/83/43 50/84/43
f 50/84/44 33/83/44 32/85/44 51/86/44
f 58/5/45 27/76/45 31/87/45 65/21/45
f 65/21/46 31/87/46 30/88/46 66/23/46
f 66/23/47 30/88/47 29/89/47 67/25/47
f 75/27/48 69/30/48 35/90/48 52/91/48
f 47/79/49 52/91/49 35/90/49 25/80/49
f 106/92/50 103/93/50 88/94/50 89/95/50
f 76/96/51 19/97/51 39/98/51 54/99/51
f 32/85/52 64/61/52 61/100/52 56/101/52
f 51/86/53 32/85/53 56/101/53 55/102/53
f 8/20/54 72/78/54 61/100/54 64/61/54
f 5/26/55 74/103/55 71/77/55 22/19/55
f 15/72/56 46/39/56 48/42/56 17/73/56
f 55/69/57 56/104/57 15/72/57 78/70/57
f 77/74/58 17/73/58 19/97/58 76/96/58
f 67/25/59 29/89/59 57/105/59 59/106/59
f 29/89/60 51/86/60 55/102/60 57/105/60
f 67/25/61 59/106/61 74/103/61 5/26/61
f 2/71/62 78/70/62 77/74/62 4/107/62
f 14/108/63 76/96/63 54/99/63 44/109/63
f 27/76/64 36/75/64 52/91/64 47/79/64
f 68/8/65 75/27/65 52/91/65 36/75/65
f 30/88/66 50/84/66 51/86/66 29/89/66
f 31/87/67 49/82/67 50/84/67 30/88/67
f 27/76/68 47/79/68 49/82/68 31/87/68
f 56/104/69 61/40/69 46/39/69 15/72/69
f 17/73/70 48/42/70 53/41/70 19/97/70
f 19/97/71 53/41/71 73/59/71 39/98/71
f 25/80/72 35/90/72 69/30/72 60/60/72
f 33/83/73 63/62/73 64/61/73 32/85/73
f 34/81/74 62/63/74 63/62/74 33/83/74
f 25/80/75 60/60/75 62/63/75 34/81/75
f 4/107/76 77/74/76 76/96/76 14/108/76
f 39/98/77 73/59/77 54/99/77
f 13/36/78 24/35/78 73/59/78
f 54/110/79 73/111/79 24/112/79
f 57/68/80 2/71/80 59/56/80
f 101/43/81 105/113/81 83/114/81 86/44/81
f 89/115/82 88/116/82 70/67/82 90/66/82
f 103/93/83 104/9/83 87/12/83 88/94/83
f 102/46/84 106/92/84 89/95/84 81/47/84
f 83/32/85 84/64/85 70/67/85 79/33/85
f 105/113/86 107/51/86 84/52/86 83/114/86
f 82/117/87 86/31/87 80/34/87
f 88/116/88 87/118/88 79/33/88 70/67/88
f 87/118/89 82/117/89 80/34/89 79/33/89
f 90/66/90 85/65/90 81/119/90
f 81/119/91 89/115/91 90/66/91
f 41/57/92 40/55/92 95/120/92 91/121/92
f 59/56/93 2/71/93 92/122/93 94/123/93
f 4/107/94 14/108/94 99/124/94 97/125/94
f 16/58/95 41/57/95 91/121/95 93/126/95
f 2/71/96 4/107/96 97/125/96 92/122/96
f 40/55/97 38/54/97 96/127/97 95/120/97
f 38/54/98 59/56/98 94/123/98 96/127/98
f 44/109/99 100/128/99 16/58/99 93/126/99 98/129/99
f 14/108/100 44/109/100 98/129/100 99/124/100
f 24/35/101 16/58/101 100/128/101
f 44/109/102 54/99/102 100/128/102
f 54/110/101 24/112/101 100/130/101
f 91/121/103 95/120/103 107/51/103 105/113/103
f 94/123/104 92/122/104 106/92/104 102/46/104
f 97/125/105 99/124/105 104/9/105 103/93/105
f 93/126/106 91/121/106 105/113/106 101/43/106
f 92/122/107 97/125/107 103/93/107 106/92/107
f 95/120/108 96/127/108 108/45/108 107/51/108
f 96/127/109 94/123/109 102/46/109 108/45/109
f 98/129/110 93/126/110 101/43/110 109/10/110
f 99/124/111 98/129/111 109/10/111 104/9/111
