# Blender v2.79 (sub 0) OBJ File: 'flashlight.blend'
# www.blender.org
mtllib flashlight.mtl
o Cylinder
v -0.000000 -0.012501 -0.070001
v -0.000000 -0.025001 0.129999
v -0.006250 -0.010826 -0.070001
v -0.012500 -0.021652 0.129999
v -0.010825 -0.006251 -0.070001
v -0.021651 -0.012501 0.129999
v -0.012500 -0.000001 -0.070001
v -0.025000 -0.000001 0.129999
v -0.010825 0.006249 -0.070001
v -0.021651 0.012499 0.129999
v -0.006250 0.010824 -0.070001
v -0.012500 0.021649 0.129999
v -0.000000 0.012499 -0.070001
v -0.000000 0.024999 0.129999
v 0.006250 0.010824 -0.070001
v 0.012500 0.021649 0.129999
v 0.010825 0.006249 -0.070001
v 0.021651 0.012499 0.129999
v 0.012500 -0.000001 -0.070001
v 0.025000 -0.000001 0.129999
v 0.010825 -0.006251 -0.070001
v 0.021651 -0.012501 0.129999
v 0.006250 -0.010826 -0.070001
v 0.012500 -0.021652 0.129999
v -0.000000 -0.018751 0.079999
v -0.009375 -0.016239 0.079999
v -0.016238 -0.009376 0.079999
v -0.018750 -0.000001 0.079999
v -0.016238 0.009374 0.079999
v -0.009375 0.016237 0.079999
v -0.000000 0.018749 0.079999
v 0.009375 0.016237 0.079999
v 0.016238 0.009374 0.079999
v 0.018750 -0.000001 0.079999
v 0.016238 -0.009376 0.079999
v 0.009375 -0.016239 0.079999
v 0.010938 -0.018945 0.089999
v 0.018944 -0.010939 0.089999
v 0.021875 -0.000001 0.089999
v 0.018944 0.010936 0.089999
v 0.010937 0.018943 0.089999
v -0.000000 0.021874 0.089999
v -0.010937 0.018943 0.089999
v -0.018944 0.010936 0.089999
v -0.021875 -0.000001 0.089999
v -0.018944 -0.010939 0.089999
v -0.010938 -0.018945 0.089999
v -0.000000 -0.021876 0.089999
v -0.000000 -0.017189 0.042499
v -0.008594 -0.014886 0.042499
v -0.014885 -0.008595 0.042499
v -0.017188 -0.000001 0.042499
v -0.014885 0.008593 0.042499
v -0.008594 0.014884 0.042499
v -0.000000 0.017186 0.042499
v 0.008594 0.014884 0.042499
v 0.014885 0.008593 0.042499
v 0.017187 -0.000001 0.042499
v 0.014885 -0.008595 0.042499
v 0.008594 -0.014886 0.042499
v -0.000000 0.023148 0.075103
v 0.007031 0.021264 0.075103
v -0.007031 0.021264 0.075103
v -0.006445 0.020249 0.046978
v -0.000000 0.021976 0.046978
v 0.006445 0.020249 0.046978
v -0.010000 -0.017322 0.129999
v -0.000000 -0.020001 0.129999
v -0.017321 -0.010001 0.129999
v -0.020000 -0.000001 0.129999
v -0.017321 0.009999 0.129999
v -0.010000 0.017319 0.129999
v -0.000000 0.019999 0.129999
v 0.010000 0.017319 0.129999
v 0.017321 0.009999 0.129999
v 0.020000 -0.000001 0.129999
v 0.017321 -0.010001 0.129999
v 0.010000 -0.017322 0.129999
v -0.010000 -0.017322 0.124999
v -0.000000 -0.020001 0.124999
v -0.017321 -0.010001 0.124999
v -0.020000 -0.000001 0.124999
v -0.017321 0.009999 0.124999
v -0.010000 0.017319 0.124999
v -0.000000 0.019999 0.124999
v 0.010000 0.017319 0.124999
v 0.017321 0.009999 0.124999
v 0.020000 -0.000001 0.124999
v 0.017321 -0.010001 0.124999
v 0.010000 -0.017322 0.124999
vt 0.028314 0.967666
vt 0.028314 0.965020
vt 0.027667 0.965020
vt 0.027667 0.967666
vt 0.025000 0.968333
vt 0.027647 0.968333
vt 0.027647 0.967686
vt 0.025000 0.967686
vt 0.028980 0.967666
vt 0.028980 0.965020
vt 0.028334 0.965020
vt 0.028334 0.967666
vt 0.025000 0.969000
vt 0.027647 0.969000
vt 0.027647 0.968353
vt 0.025000 0.968353
vt 0.029647 0.967666
vt 0.029647 0.965020
vt 0.029000 0.965020
vt 0.029000 0.967666
vt 0.025000 0.969666
vt 0.027647 0.969666
vt 0.027647 0.969020
vt 0.025000 0.969020
vt 0.030314 0.967666
vt 0.030314 0.965020
vt 0.029667 0.965020
vt 0.029667 0.967666
vt 0.025000 0.970333
vt 0.027647 0.970333
vt 0.027647 0.969686
vt 0.025000 0.969686
vt 0.028314 0.970333
vt 0.028314 0.967686
vt 0.027667 0.967686
vt 0.027667 0.970333
vt 0.025000 0.971000
vt 0.027647 0.971000
vt 0.027647 0.970353
vt 0.025000 0.970353
vt 0.029647 0.969020
vt 0.029000 0.969020
vt 0.029000 0.969666
vt 0.029647 0.969666
vt 0.028980 0.970333
vt 0.028980 0.967686
vt 0.028334 0.967686
vt 0.028334 0.970333
vt 0.027667 0.971000
vt 0.030314 0.971000
vt 0.030314 0.970353
vt 0.027667 0.970353
vt 0.029833 0.967686
vt 0.030138 0.967862
vt 0.030314 0.968167
vt 0.030314 0.968519
vt 0.030138 0.968824
vt 0.029833 0.969000
vt 0.029481 0.969000
vt 0.029176 0.968824
vt 0.029000 0.968519
vt 0.029000 0.968167
vt 0.029176 0.967862
vt 0.029481 0.967686
vt 0.030980 0.967666
vt 0.030980 0.965020
vt 0.030334 0.965020
vt 0.030334 0.967666
vt 0.025000 0.971666
vt 0.027647 0.971666
vt 0.027647 0.971020
vt 0.025000 0.971020
vt 0.030980 0.970333
vt 0.030980 0.967686
vt 0.030334 0.967686
vt 0.030334 0.970333
vt 0.027667 0.971666
vt 0.030314 0.971666
vt 0.030314 0.971020
vt 0.027667 0.971020
vt 0.031647 0.967666
vt 0.031647 0.965020
vt 0.031000 0.965020
vt 0.031000 0.967666
vt 0.101010 0.969686
vt 0.100363 0.969686
vt 0.100363 0.970333
vt 0.101010 0.970333
vt 0.101676 0.969020
vt 0.101030 0.969020
vt 0.101030 0.969666
vt 0.101676 0.969666
vt 0.025000 0.972333
vt 0.027647 0.972333
vt 0.027647 0.971686
vt 0.025000 0.971686
vt 0.031647 0.970333
vt 0.031647 0.967686
vt 0.031000 0.967686
vt 0.031000 0.970333
vt 0.027667 0.972333
vt 0.030314 0.972333
vt 0.030314 0.971686
vt 0.027667 0.971686
vt 0.032314 0.967666
vt 0.032314 0.965020
vt 0.031667 0.965020
vt 0.031667 0.967666
vt 0.025000 0.973000
vt 0.027647 0.973000
vt 0.027647 0.972353
vt 0.025000 0.972353
vt 0.030314 0.969686
vt 0.029667 0.969686
vt 0.029667 0.970333
vt 0.030314 0.970333
vt 0.033647 0.973020
vt 0.033000 0.973020
vt 0.033000 0.973666
vt 0.033647 0.973666
vt 0.025647 0.973686
vt 0.025000 0.973686
vt 0.025000 0.974333
vt 0.025647 0.974333
vt 0.026314 0.973686
vt 0.025667 0.973686
vt 0.025667 0.974333
vt 0.026314 0.974333
vt 0.026980 0.973686
vt 0.026334 0.973686
vt 0.026334 0.974333
vt 0.026980 0.974333
vt 0.027647 0.973686
vt 0.027000 0.973686
vt 0.027000 0.974333
vt 0.027647 0.974333
vt 0.028314 0.973686
vt 0.027667 0.973686
vt 0.027667 0.974333
vt 0.028314 0.974333
vt 0.028980 0.973686
vt 0.028334 0.973686
vt 0.028334 0.974333
vt 0.028980 0.974333
vt 0.029647 0.973686
vt 0.029000 0.973686
vt 0.029000 0.974333
vt 0.029647 0.974333
vt 0.030314 0.973686
vt 0.029667 0.973686
vt 0.029667 0.974333
vt 0.030314 0.974333
vt 0.030980 0.973686
vt 0.030334 0.973686
vt 0.030334 0.974333
vt 0.030980 0.974333
vt 0.032314 0.970333
vt 0.031667 0.970333
vt 0.027667 0.973000
vt 0.030314 0.973000
vt 0.030314 0.972353
vt 0.027667 0.972353
vt 0.032980 0.967666
vt 0.032980 0.965020
vt 0.032334 0.965020
vt 0.032334 0.967666
vt 0.030334 0.971000
vt 0.032980 0.971000
vt 0.032980 0.970353
vt 0.030334 0.970353
vt 0.032980 0.970333
vt 0.032980 0.967686
vt 0.032334 0.967686
vt 0.032334 0.970333
vt 0.030334 0.971666
vt 0.032980 0.971666
vt 0.032980 0.971020
vt 0.030334 0.971020
vt 0.033647 0.967666
vt 0.033647 0.965020
vt 0.033000 0.965020
vt 0.033000 0.967666
vt 0.030334 0.972333
vt 0.032980 0.972333
vt 0.032980 0.971686
vt 0.030334 0.971686
vt 0.033647 0.970333
vt 0.033647 0.967686
vt 0.033000 0.967686
vt 0.033000 0.970333
vt 0.030334 0.973000
vt 0.032980 0.973000
vt 0.032980 0.972353
vt 0.030334 0.972353
vt 0.033647 0.973000
vt 0.033647 0.970353
vt 0.033000 0.970353
vt 0.033000 0.973000
vt 0.034314 0.970353
vt 0.033667 0.970353
vt 0.033667 0.971000
vt 0.034314 0.971000
vt 0.025000 0.973666
vt 0.027647 0.973666
vt 0.027647 0.973020
vt 0.025000 0.973020
vt 0.159814 0.967666
vt 0.159814 0.965020
vt 0.159167 0.965020
vt 0.159167 0.967666
vt 0.153167 0.973666
vt 0.155814 0.973666
vt 0.155814 0.973020
vt 0.153167 0.973020
vt 0.105676 0.970333
vt 0.105676 0.967686
vt 0.105030 0.967686
vt 0.105030 0.970333
vt 0.101696 0.973666
vt 0.104343 0.973666
vt 0.104343 0.973020
vt 0.101696 0.973020
vt 0.103010 0.973686
vt 0.102363 0.973686
vt 0.102363 0.974333
vt 0.103010 0.974333
vt 0.105676 0.971020
vt 0.105030 0.971020
vt 0.105030 0.971666
vt 0.105676 0.971666
vt 0.032314 0.973686
vt 0.031667 0.973686
vt 0.031667 0.974333
vt 0.032314 0.974333
vt 0.034314 0.971686
vt 0.033667 0.971686
vt 0.033667 0.972333
vt 0.034314 0.972333
vt 0.032980 0.973686
vt 0.032334 0.973686
vt 0.032334 0.974333
vt 0.032980 0.974333
vt 0.034314 0.972353
vt 0.033667 0.972353
vt 0.033667 0.973000
vt 0.034314 0.973000
vt 0.034314 0.973020
vt 0.033667 0.973020
vt 0.033667 0.973666
vt 0.034314 0.973666
vt 0.033647 0.973686
vt 0.033000 0.973686
vt 0.033000 0.974333
vt 0.033647 0.974333
vt 0.034314 0.973686
vt 0.033667 0.973686
vt 0.033667 0.974333
vt 0.034314 0.974333
vt 0.034980 0.965020
vt 0.034334 0.965020
vt 0.034334 0.965666
vt 0.034980 0.965666
vt 0.025647 0.974353
vt 0.025000 0.974353
vt 0.025000 0.975000
vt 0.025647 0.975000
vt 0.026314 0.974353
vt 0.025667 0.974353
vt 0.025667 0.975000
vt 0.026314 0.975000
vt 0.034980 0.965686
vt 0.034334 0.965686
vt 0.034334 0.966333
vt 0.034980 0.966333
vt 0.026980 0.974353
vt 0.026334 0.974353
vt 0.026334 0.975000
vt 0.026980 0.975000
vt 0.969772 0.965374
vt 0.970127 0.965988
vt 0.970127 0.966698
vt 0.969772 0.967312
vt 0.969158 0.967666
vt 0.968449 0.967666
vt 0.967835 0.967312
vt 0.967480 0.966698
vt 0.967480 0.965988
vt 0.967835 0.965374
vt 0.968449 0.965020
vt 0.969158 0.965020
vt 0.034980 0.966353
vt 0.034334 0.966353
vt 0.034334 0.967000
vt 0.034980 0.967000
vt 0.027647 0.974353
vt 0.027000 0.974353
vt 0.027000 0.975000
vt 0.027647 0.975000
vt 0.034980 0.967020
vt 0.034334 0.967020
vt 0.034334 0.967666
vt 0.034980 0.967666
vt 0.034980 0.967686
vt 0.034334 0.967686
vt 0.034334 0.968333
vt 0.034980 0.968333
vt 0.028314 0.974353
vt 0.027667 0.974353
vt 0.027667 0.975000
vt 0.028314 0.975000
vt 0.028980 0.974353
vt 0.028334 0.974353
vt 0.028334 0.975000
vt 0.028980 0.975000
vt 0.034980 0.968353
vt 0.034334 0.968353
vt 0.034334 0.969000
vt 0.034980 0.969000
vt 0.029647 0.974353
vt 0.029000 0.974353
vt 0.029000 0.975000
vt 0.029647 0.975000
vt 0.034980 0.969020
vt 0.034334 0.969020
vt 0.034334 0.969666
vt 0.034980 0.969666
vt 0.030314 0.974353
vt 0.029667 0.974353
vt 0.029667 0.975000
vt 0.030314 0.975000
vt 0.034980 0.969686
vt 0.034334 0.969686
vt 0.034334 0.970333
vt 0.034980 0.970333
vn -0.2581 -0.9632 -0.0752
vn -0.7051 -0.7051 -0.0752
vn -0.9632 -0.2581 -0.0752
vn -0.9632 0.2581 -0.0752
vn -0.7051 0.7051 -0.0752
vn -0.2581 0.9632 -0.0752
vn 0.2581 0.9632 -0.0752
vn 0.7051 0.7051 -0.0752
vn 0.9632 0.2581 -0.0752
vn 0.9632 -0.2581 -0.0752
vn 0.0000 0.0000 1.0000
vn 0.7051 -0.7051 -0.0752
vn 0.2581 -0.9632 -0.0752
vn -0.0000 0.0000 -1.0000
vn 0.2586 -0.9651 -0.0402
vn 0.7065 -0.7065 -0.0402
vn 0.9651 -0.2586 -0.0402
vn 0.9651 0.2586 -0.0402
vn 0.7065 0.7065 -0.0402
vn 0.1800 0.6719 -0.7184
vn 0.1955 0.7295 0.6555
vn -0.7065 0.7065 -0.0402
vn -0.9651 0.2586 -0.0402
vn -0.9651 -0.2586 -0.0402
vn -0.7065 -0.7065 -0.0402
vn -0.2586 -0.9651 -0.0402
vn -0.2478 -0.9247 -0.2890
vn -0.6769 -0.6769 -0.2890
vn -0.9247 -0.2478 -0.2890
vn -0.9247 0.2478 -0.2890
vn -0.6769 0.6769 -0.2890
vn -0.2478 0.9247 -0.2890
vn 0.2478 0.9247 -0.2890
vn 0.6769 0.6769 -0.2890
vn 0.9247 0.2478 -0.2890
vn 0.9247 -0.2478 -0.2890
vn 0.6769 -0.6769 -0.2890
vn -0.2586 0.9651 -0.0402
vn 0.2586 0.9651 -0.0402
vn 0.2478 -0.9247 -0.2890
vn 0.9179 0.3954 -0.0334
vn -0.9179 0.3954 -0.0334
vn -0.1955 0.7295 0.6555
vn -0.1800 0.6719 -0.7184
vn -0.9659 0.2588 0.0000
vn -0.2588 -0.9659 0.0000
vn 0.9659 -0.2588 -0.0000
vn -0.7071 0.7071 0.0000
vn 0.2588 0.9659 0.0000
vn -0.7071 -0.7071 0.0000
vn 0.7071 -0.7071 -0.0000
vn -0.2588 0.9659 0.0000
vn 0.7071 0.7071 0.0000
vn -0.9659 -0.2588 0.0000
vn 0.2588 -0.9659 0.0000
vn 0.9659 0.2588 0.0000
usemtl None
s off
f 48/1/1 2/2/1 4/3/1 47/4/1
f 47/5/2 4/6/2 6/7/2 46/8/2
f 46/9/3 6/10/3 8/11/3 45/12/3
f 45/13/4 8/14/4 10/15/4 44/16/4
f 44/17/5 10/18/5 12/19/5 43/20/5
f 43/21/6 12/22/6 14/23/6 42/24/6
f 42/25/7 14/26/7 16/27/7 41/28/7
f 41/29/8 16/30/8 18/31/8 40/32/8
f 40/33/9 18/34/9 20/35/9 39/36/9
f 39/37/10 20/38/10 22/39/10 38/40/10
f 14/41/11 12/42/11 72/43/11 73/44/11
f 38/45/12 22/46/12 24/47/12 37/48/12
f 37/49/13 24/50/13 2/51/13 48/52/13
f 1/53/14 3/54/14 5/55/14 7/56/14 9/57/14 11/58/14 13/59/14 15/60/14 17/61/14 19/62/14 21/63/14 23/64/14
f 60/65/15 36/66/15 25/67/15 49/68/15
f 59/69/16 35/70/16 36/71/16 60/72/16
f 58/73/17 34/74/17 35/75/17 59/76/17
f 57/77/18 33/78/18 34/79/18 58/80/18
f 56/81/19 32/82/19 33/83/19 57/84/19
f 56/85/20 55/86/20 65/87/20 66/88/20
f 31/89/21 32/90/21 62/91/21 61/92/21
f 53/93/22 29/94/22 30/95/22 54/96/22
f 52/97/23 28/98/23 29/99/23 53/100/23
f 51/101/24 27/102/24 28/103/24 52/104/24
f 50/105/25 26/106/25 27/107/25 51/108/25
f 49/109/26 25/110/26 26/111/26 50/112/26
f 25/113/27 48/114/27 47/115/27 26/116/27
f 26/117/28 47/118/28 46/119/28 27/120/28
f 27/121/29 46/122/29 45/123/29 28/124/29
f 28/125/30 45/126/30 44/127/30 29/128/30
f 29/129/31 44/130/31 43/131/31 30/132/31
f 30/133/32 43/134/32 42/135/32 31/136/32
f 31/137/33 42/138/33 41/139/33 32/140/33
f 32/141/34 41/142/34 40/143/34 33/144/34
f 33/145/35 40/146/35 39/147/35 34/148/35
f 34/149/36 39/150/36 38/151/36 35/152/36
f 35/153/37 38/154/37 37/155/37 36/156/37
f 3/157/25 50/105/25 51/108/25 5/158/25
f 5/159/24 51/160/24 52/161/24 7/162/24
f 7/163/23 52/164/23 53/165/23 9/166/23
f 9/167/22 53/168/22 54/169/22 11/170/22
f 11/171/38 54/172/38 55/173/38 13/174/38
f 13/175/39 55/176/39 56/177/39 15/178/39
f 15/179/19 56/180/19 57/181/19 17/182/19
f 17/183/18 57/184/18 58/185/18 19/186/18
f 19/187/17 58/188/17 59/189/17 21/190/17
f 21/191/16 59/192/16 60/193/16 23/194/16
f 23/195/15 60/196/15 49/197/15 1/198/15
f 36/199/40 37/200/40 48/201/40 25/202/40
f 1/203/26 49/204/26 50/205/26 3/206/26
f 65/207/39 61/208/39 62/209/39 66/210/39
f 64/211/38 63/212/38 61/213/38 65/214/38
f 32/215/41 56/216/41 66/217/41 62/218/41
f 54/219/42 30/220/42 63/221/42 64/222/42
f 30/223/43 31/224/43 61/225/43 63/226/43
f 55/227/44 54/228/44 64/229/44 65/230/44
f 77/231/45 76/232/45 88/233/45 89/234/45
f 12/235/11 10/236/11 71/237/11 72/238/11
f 10/239/11 8/240/11 70/241/11 71/242/11
f 2/243/11 24/244/11 78/245/11 68/246/11
f 4/247/11 2/248/11 68/249/11 67/250/11
f 8/251/11 6/252/11 69/253/11 70/254/11
f 24/255/11 22/256/11 77/257/11 78/258/11
f 6/259/11 4/260/11 67/261/11 69/262/11
f 22/263/11 20/264/11 76/265/11 77/266/11
f 20/267/11 18/268/11 75/269/11 76/270/11
f 18/271/11 16/272/11 74/273/11 75/274/11
f 16/275/11 14/276/11 73/277/11 74/278/11
f 79/279/11 80/280/11 90/281/11 89/282/11 88/283/11 87/284/11 86/285/11 85/286/11 84/287/11 83/288/11 82/289/11 81/290/11
f 74/291/46 73/292/46 85/293/46 86/294/46
f 71/295/47 70/296/47 82/297/47 83/298/47
f 78/299/48 77/300/48 89/301/48 90/302/48
f 67/303/49 68/304/49 80/305/49 79/306/49
f 75/307/50 74/308/50 86/309/50 87/310/50
f 72/311/51 71/312/51 83/313/51 84/314/51
f 68/315/52 78/316/52 90/317/52 80/318/52
f 69/319/53 67/320/53 79/321/53 81/322/53
f 76/323/54 75/324/54 87/325/54 88/326/54
f 73/327/55 72/328/55 84/329/55 85/330/55
f 70/331/56 69/332/56 81/333/56 82/334/56
